<svg xmlns="http://www.w3.org/2000/svg" xmlns:xlink="http://www.w3.org/1999/xlink" width="2000" zoomAndPan="magnify" viewBox="0 0 1500 460.499986" height="614" preserveAspectRatio="xMidYMid meet" version="1.0"><defs><g/><clipPath id="569821087e"><path d="M 62 437 L 83 437 L 83 459.8125 L 62 459.8125 Z M 62 437 " clip-rule="nonzero"/></clipPath></defs><g fill="#ffffff" fill-opacity="1"><g transform="translate(309.878508, 378.143919)"><g><path d="M 246.3125 0 L 211.875 0 L 186.609375 -75.0625 L 70 -75.0625 L 44.546875 0 L 10.859375 0 L 106.3125 -273.640625 L 150.859375 -273.640625 Z M 125.96875 -240.515625 L 78.984375 -102.015625 L 177.4375 -102.015625 L 130.640625 -240.515625 Z M 125.96875 -240.515625 "/></g></g><g transform="translate(567.056539, 378.143919)"><g><path d="M 213.5625 -273.640625 L 213.5625 -246.3125 L 127.84375 -246.3125 L 127.84375 0 L 95.828125 0 L 95.828125 -246.3125 L 10.109375 -246.3125 L 10.109375 -273.640625 Z M 213.5625 -273.640625 "/></g></g><g transform="translate(790.543123, 378.143919)"><g><path d="M 73.5625 -273.640625 L 73.5625 -26.578125 L 205.328125 -26.578125 L 205.328125 0 L 41.359375 0 L 41.359375 -273.640625 Z M 73.5625 -273.640625 "/></g></g><g transform="translate(1007.478594, 378.143919)"><g><path d="M 246.3125 0 L 211.875 0 L 186.609375 -75.0625 L 70 -75.0625 L 44.546875 0 L 10.859375 0 L 106.3125 -273.640625 L 150.859375 -273.640625 Z M 125.96875 -240.515625 L 78.984375 -102.015625 L 177.4375 -102.015625 L 130.640625 -240.515625 Z M 125.96875 -240.515625 "/></g></g><g transform="translate(1264.656625, 378.143919)"><g><path d="M 119.609375 3.9375 C 102.378906 3.9375 86.929688 1.597656 73.265625 -3.078125 C 59.609375 -7.765625 48.222656 -13.910156 39.109375 -21.515625 C 30.003906 -29.128906 23.207031 -37.492188 18.71875 -46.609375 L 36.3125 -67.9375 L 40.984375 -67.9375 C 57.960938 -39.363281 84.171875 -25.078125 119.609375 -25.078125 C 140.191406 -25.078125 155.503906 -29.378906 165.546875 -37.984375 C 175.597656 -46.597656 180.625 -58.582031 180.625 -73.9375 C 180.625 -82.914062 178.96875 -90.523438 175.65625 -96.765625 C 172.351562 -103.003906 166.894531 -108.335938 159.28125 -112.765625 C 151.664062 -117.203125 141.3125 -121.039062 128.21875 -124.28125 L 96.203125 -132.140625 C 72.367188 -137.878906 54.804688 -147.019531 43.515625 -159.5625 C 32.222656 -172.101562 26.578125 -187.984375 26.578125 -207.203125 C 26.578125 -220.796875 30.070312 -232.925781 37.0625 -243.59375 C 44.050781 -254.269531 54.28125 -262.601562 67.75 -268.59375 C 81.226562 -274.582031 97.328125 -277.578125 116.046875 -277.578125 C 136.640625 -277.578125 154.015625 -274.675781 168.171875 -268.875 C 182.335938 -263.070312 193.660156 -254.367188 202.140625 -242.765625 L 186.421875 -221.609375 L 181.75 -221.609375 C 173.882812 -231.222656 164.585938 -238.273438 153.859375 -242.765625 C 143.128906 -247.253906 130.523438 -249.5 116.046875 -249.5 C 97.078125 -249.5 82.753906 -245.816406 73.078125 -238.453125 C 63.410156 -231.085938 58.578125 -220.921875 58.578125 -207.953125 C 58.578125 -195.597656 62.132812 -185.769531 69.25 -178.46875 C 76.363281 -171.164062 88.34375 -165.519531 105.1875 -161.53125 L 137.953125 -153.671875 C 164.523438 -147.429688 183.769531 -137.851562 195.6875 -124.9375 C 207.601562 -112.019531 213.5625 -95.519531 213.5625 -75.4375 C 213.5625 -59.957031 210.097656 -46.257812 203.171875 -34.34375 C 196.242188 -22.425781 185.726562 -13.066406 171.625 -6.265625 C 157.53125 0.535156 140.191406 3.9375 119.609375 3.9375 Z M 119.609375 3.9375 "/></g></g></g><path fill="#ffffff" d="M 276.632812 6.804688 C 269.324219 5.3125 268.953125 4.519531 268.792969 4.179688 C 270.292969 0.574219 306.933594 4.59375 308.796875 8.5625 C 309.308594 9.648438 306.894531 9.914062 305.730469 10.042969 C 295.65625 10.613281 276.820312 6.84375 276.632812 6.804688 " fill-opacity="1" fill-rule="nonzero"/><path fill="#ffffff" d="M 247.761719 18.957031 C 238.394531 17.605469 234.460938 15.230469 237.738281 12.898438 C 245.949219 7.058594 278.855469 9.601562 278.675781 16.058594 C 278.648438 16.960938 277.886719 17.441406 277.074219 17.945312 C 269.859375 21.183594 253.074219 19.722656 247.761719 18.957031 " fill-opacity="1" fill-rule="nonzero"/><path fill="#ffffff" d="M 228.527344 41.378906 C 216.539062 40.660156 210.855469 36.734375 215.296875 32.238281 C 225.339844 22.082031 258.3125 26.042969 257.453125 34.054688 C 257.402344 34.519531 257.097656 35.089844 256.871094 35.496094 C 252.121094 40.933594 235.722656 41.808594 228.527344 41.378906 " fill-opacity="1" fill-rule="nonzero"/><path fill="#ffffff" d="M 220.128906 72.6875 C 203.605469 73.46875 197.671875 65.984375 204.410156 59.3125 C 215.882812 47.953125 245.816406 50.824219 246.214844 60.5 C 246.226562 60.785156 246.164062 61.171875 246.144531 61.457031 C 243.808594 69.125 227.609375 72.332031 220.128906 72.6875 " fill-opacity="1" fill-rule="nonzero"/><path fill="#ffffff" d="M 223.699219 111.570312 C 206.257812 114.746094 197.105469 105.207031 203.269531 96.03125 C 212.09375 82.882812 242.785156 81.851562 245.917969 94.601562 C 246.378906 103.433594 233.203125 109.839844 223.699219 111.570312 " fill-opacity="1" fill-rule="nonzero"/><path fill="#ffffff" d="M 228.269531 5.351562 C 224.871094 5.746094 223.144531 6.011719 222.296875 6.160156 C 230.992188 4.960938 242.605469 3.421875 251.355469 2.703125 L 264.285156 2.195312 C 262.769531 2.269531 261.265625 2.417969 259.753906 2.535156 C 248.800781 3.394531 237.472656 4.28125 228.269531 5.351562 " fill-opacity="1" fill-rule="nonzero"/><path fill="#ffffff" d="M 193.648438 19.808594 C 186.945312 20.601562 183.382812 20.238281 184.125 18.84375 C 186.765625 13.859375 224.375 5.71875 226.488281 9.675781 C 226.976562 10.59375 225.238281 11.574219 224.089844 12.222656 C 215.84375 16.210938 200.019531 19.054688 193.648438 19.808594 " fill-opacity="1" fill-rule="nonzero"/><path fill="#ffffff" d="M 170.515625 46.59375 C 160.179688 48.222656 155.21875 45.855469 158.726562 40.957031 C 166.203125 30.507812 197.628906 22.726562 199.730469 30.800781 C 200.039062 31.988281 199.453125 32.933594 198.839844 33.9375 C 193.519531 40.425781 179.074219 45.246094 170.515625 46.59375 " fill-opacity="1" fill-rule="nonzero"/><path fill="#ffffff" d="M 160.339844 84.121094 C 147.105469 87.128906 139.851562 81.542969 145.417969 72.632812 C 154.699219 57.761719 183.613281 53.695312 185.382812 63.9375 C 185.5 64.605469 185.410156 65.523438 185.335938 66.199219 C 182.859375 75.210938 169.230469 82.105469 160.339844 84.121094 " fill-opacity="1" fill-rule="nonzero"/><path fill="#ffffff" d="M 164.554688 130.84375 C 149.523438 135.742188 138.78125 126.695312 144.734375 114.152344 C 152.460938 97.871094 180.414062 92.222656 184.609375 106.09375 C 184.738281 106.511719 184.832031 107.09375 184.925781 107.519531 C 185.742188 118.761719 173.503906 127.925781 164.554688 130.84375 " fill-opacity="1" fill-rule="nonzero"/><path fill="#ffffff" d="M 183.5625 182.726562 C 167 190.429688 152.347656 178.683594 158.675781 162.785156 C 165.015625 146.839844 190.765625 139.691406 198.621094 155.578125 C 202.714844 167.574219 192.28125 178.675781 183.5625 182.726562 " fill-opacity="1" fill-rule="nonzero"/><path fill="#ffffff" d="M 214.625 232.976562 C 199.023438 242.929688 181.414062 232.921875 184.714844 215.976562 C 188.003906 199.101562 213.140625 188.542969 224.507812 203.503906 C 231.273438 215.164062 222.800781 227.761719 214.625 232.976562 " fill-opacity="1" fill-rule="nonzero"/><path fill="#ffffff" d="M 255.015625 278.867188 C 241.195312 290.71875 221.34375 283.050781 221.832031 266.046875 C 222.320312 248.828125 245.929688 234.800781 259.914062 248.054688 C 268.800781 258.792969 262.398438 272.535156 255.015625 278.867188 " fill-opacity="1" fill-rule="nonzero"/><path fill="#ffffff" d="M 142.996094 34.648438 C 136.679688 37.421875 135.789062 37.683594 135.308594 37.820312 C 135.535156 37.527344 135.535156 37.527344 136.035156 37.242188 L 137.949219 36.160156 C 148.65625 30.695312 163.195312 23.910156 174.28125 19.265625 C 175.664062 18.75 175.878906 18.691406 176.339844 18.613281 C 176 19.082031 175.957031 19.140625 173.058594 20.664062 C 162.429688 26.097656 143.1875 34.5625 142.996094 34.648438 " fill-opacity="1" fill-rule="nonzero"/><path fill="#ffffff" d="M 117.246094 64.394531 C 109.585938 67.703125 105.464844 67.496094 107 63.878906 C 111.246094 53.871094 142.855469 35.601562 145.4375 41.667969 C 145.90625 42.78125 144.820312 44.4375 144.167969 45.425781 C 138.191406 53.070312 124.832031 61.117188 117.246094 64.394531 " fill-opacity="1" fill-rule="nonzero"/><path fill="#ffffff" d="M 105.902344 106.140625 C 95.03125 111.085938 88.859375 107.226562 92.695312 97.886719 C 98.972656 82.574219 123.585938 68.664062 128.28125 77.773438 C 129.070312 79.300781 128.878906 80.753906 128.679688 82.289062 C 126.003906 92.8125 113.746094 102.574219 105.902344 106.140625 " fill-opacity="1" fill-rule="nonzero"/><path fill="#ffffff" d="M 110.585938 158.214844 C 97.078125 165.042969 87.351562 156.101562 92.328125 141.433594 C 98.519531 123.179688 121.742188 113.28125 127.332031 126.507812 C 127.703125 127.394531 127.976562 128.664062 128.167969 129.605469 C 129.300781 142.632812 118.566406 154.179688 110.585938 158.214844 " fill-opacity="1" fill-rule="nonzero"/><path fill="#ffffff" d="M 131.773438 216.054688 C 116.71875 224.984375 102.4375 212.511719 107.125 194.527344 C 112.191406 175.101562 134.65625 167.84375 143 182.945312 C 143.28125 183.453125 143.585938 184.164062 143.839844 184.6875 C 148.71875 198.492188 139.722656 211.339844 131.773438 216.054688 " fill-opacity="1" fill-rule="nonzero"/><path fill="#ffffff" d="M 166.429688 272.140625 C 150.972656 283.050781 132.496094 270.054688 136.015625 250.742188 C 139.269531 232.878906 161.484375 223.527344 173.511719 239.675781 C 181.421875 253.035156 174.132812 266.699219 166.429688 272.140625 " fill-opacity="1" fill-rule="nonzero"/><path fill="#ffffff" d="M 211.566406 323.4375 C 197.269531 335.519531 175.640625 324.644531 176.507812 305.804688 C 177.324219 288.027344 199.230469 276.464844 214.167969 290.882812 C 224.460938 303.121094 218.84375 317.285156 211.566406 323.4375 " fill-opacity="1" fill-rule="nonzero"/><path fill="#ffffff" d="M 71.40625 94.792969 C 65.15625 100.070312 64.101562 99.894531 63.753906 99.835938 C 62.101562 97.066406 92.804688 66.011719 96.941406 66.273438 C 97.023438 66.277344 97.128906 66.328125 97.207031 66.351562 C 97.511719 66.96875 97.023438 67.863281 95.488281 70.066406 C 89.328125 78.300781 77.695312 89.480469 71.40625 94.792969 " fill-opacity="1" fill-rule="nonzero"/><path fill="#ffffff" d="M 59.546875 138.425781 C 52.550781 144.027344 47.890625 143.640625 48.472656 137.507812 C 49.8125 123.382812 73.332031 97.285156 78.433594 104.257812 C 79.46875 105.679688 79.109375 108.089844 78.894531 109.527344 C 76.199219 120.933594 65.957031 133.289062 59.546875 138.425781 " fill-opacity="1" fill-rule="nonzero"/><path fill="#ffffff" d="M 64.472656 192.929688 C 54.726562 200.453125 46.757812 194.917969 48.070312 181.542969 C 49.976562 162.203125 68.648438 144.230469 76.210938 154.457031 C 77.597656 156.335938 77.964844 158.238281 78.359375 160.253906 C 79.75 174.324219 71.074219 187.832031 64.472656 192.929688 " fill-opacity="1" fill-rule="nonzero"/><path fill="#ffffff" d="M 86.6875 253.476562 C 73.960938 263.324219 60.808594 250.96875 63.609375 231.808594 C 66.515625 211.949219 84.277344 202.371094 93.304688 215.800781 C 93.976562 216.796875 94.675781 218.257812 95.1875 219.34375 C 100.878906 235.011719 92.992188 248.59375 86.6875 253.476562 " fill-opacity="1" fill-rule="nonzero"/><path fill="#ffffff" d="M 123.027344 312.253906 C 109.457031 323.042969 91.640625 309.617188 93.238281 289.804688 C 94.816406 270.3125 114.257812 262.40625 125.746094 276.585938 C 126.164062 277.105469 126.664062 277.835938 127.058594 278.371094 C 135.671875 292.679688 129.886719 306.800781 123.027344 312.253906 " fill-opacity="1" fill-rule="nonzero"/><path fill="#ffffff" d="M 170.414062 366.078125 C 156.363281 377.757812 133.988281 364.136719 135.203125 344.640625 C 136.273438 327.523438 155.535156 318.519531 170.769531 333.410156 C 181.910156 346.480469 177.269531 360.382812 170.414062 366.078125 " fill-opacity="1" fill-rule="nonzero"/><path fill="#ffffff" d="M 36.753906 136.273438 C 35.519531 138.289062 34.542969 139.957031 33.839844 141.230469 C 37.574219 135.007812 42.398438 126.617188 46.410156 120.570312 L 57.179688 105.679688 C 56.742188 106.261719 56.164062 107.039062 55.734375 107.625 C 49.507812 116.308594 41.191406 129.007812 36.753906 136.273438 " fill-opacity="1" fill-rule="nonzero"/><path fill="#ffffff" d="M 25.054688 179.214844 C 21.640625 184.222656 19.234375 185.765625 18.78125 183.238281 C 17.214844 174.523438 34.617188 138.761719 38.800781 142.09375 C 39.757812 142.855469 39.28125 145.6875 38.992188 147.378906 C 36.460938 158.953125 29.316406 172.960938 25.054688 179.214844 " fill-opacity="1" fill-rule="nonzero"/><path fill="#ffffff" d="M 29.890625 232.929688 C 24.734375 239.40625 19.859375 237.546875 18.554688 228.597656 C 16.042969 211.34375 27.605469 185.554688 35.277344 191.316406 C 37.429688 192.929688 38.070312 196.457031 38.453125 198.5625 C 40.019531 212.703125 34.269531 227.429688 29.890625 232.929688 " fill-opacity="1" fill-rule="nonzero"/><path fill="#ffffff" d="M 51.765625 292.605469 C 43.585938 301.347656 33.078125 291.085938 32.386719 273.671875 C 31.671875 255.820312 41.4375 243.445312 50.398438 250.84375 C 53.070312 253.050781 54.566406 256.289062 55.457031 258.222656 C 61.058594 273.226562 56.671875 287.359375 51.765625 292.605469 " fill-opacity="1" fill-rule="nonzero"/><path fill="#ffffff" d="M 87.597656 350.59375 C 77.046875 360.257812 60.511719 344.929688 60.785156 325.742188 C 61.019531 309.269531 74.355469 303.03125 84.96875 314.429688 C 85.859375 315.386719 86.894531 316.796875 87.65625 317.855469 C 96.5 332.296875 92.945312 345.691406 87.597656 350.59375 " fill-opacity="1" fill-rule="nonzero"/><path fill="#ffffff" d="M 134.371094 403.765625 C 121.617188 413.953125 99.207031 396.160156 101.519531 377.6875 C 103.152344 364.667969 118.453125 360.234375 131.871094 373.53125 C 143.242188 386.683594 140.179688 399.128906 134.371094 403.765625 " fill-opacity="1" fill-rule="nonzero"/><path fill="#ffffff" d="M 5.953125 223.902344 C 4.644531 228.800781 4.304688 229.671875 4.164062 230.042969 C 4.074219 229.898438 4.089844 229.644531 4.109375 229.476562 L 5.980469 218.558594 C 8.066406 209.582031 10.933594 197.621094 13.53125 188.777344 C 13.984375 187.40625 14.058594 187.257812 14.25 186.964844 C 14.378906 187.273438 14.445312 187.441406 13.660156 191.566406 C 11.339844 203.113281 7.308594 218.820312 5.953125 223.902344 " fill-opacity="1" fill-rule="nonzero"/><path fill="#ffffff" d="M 10.417969 273.710938 C 8.730469 278.285156 6.828125 279.085938 5.460938 275.808594 C 0.984375 265.09375 5.089844 230.453125 10.507812 233.203125 C 12.085938 234.003906 12.808594 238.339844 13.121094 240.191406 C 14.796875 253.71875 12.550781 267.933594 10.417969 273.710938 " fill-opacity="1" fill-rule="nonzero"/><path fill="#ffffff" d="M 30.679688 329.050781 C 26.949219 335.679688 20.707031 330.414062 17.316406 317.78125 C 12.910156 301.347656 16.292969 284.664062 23.257812 288.515625 C 26.246094 290.167969 28.355469 294.882812 29.253906 296.898438 C 34.726562 311.09375 33.378906 324.246094 30.679688 329.050781 " fill-opacity="1" fill-rule="nonzero"/><path fill="#ffffff" d="M 63.910156 382.890625 C 56.996094 390.789062 42.410156 374.660156 40.964844 357.507812 C 39.949219 345.4375 46.679688 340.691406 54.816406 347.742188 C 57.078125 349.699219 58.421875 351.601562 59.84375 353.609375 C 68.375 367.265625 67.355469 378.953125 63.910156 382.890625 " fill-opacity="1" fill-rule="nonzero"/><path fill="#ffffff" d="M 107.347656 432.324219 C 97.339844 439.742188 75.554688 418.898438 78.210938 404.449219 C 79.765625 395.960938 90.457031 395.066406 101.898438 406.632812 C 112.8125 419.046875 111.65625 429.128906 107.347656 432.324219 " fill-opacity="1" fill-rule="nonzero"/><path fill="#ffffff" d="M 5.730469 313.390625 C 5.882812 316.753906 5.820312 317.292969 5.785156 317.617188 C 5.660156 317.445312 5.554688 317.167969 5.511719 316.960938 C 2.066406 293.679688 2.003906 293.234375 1.449219 281.203125 C 1.289062 277.25 1.480469 276.800781 1.601562 276.535156 C 1.914062 276.820312 2.140625 277.023438 2.945312 282.378906 C 4.96875 297.046875 5.722656 313.230469 5.730469 313.390625 " fill-opacity="1" fill-rule="nonzero"/><path fill="#ffffff" d="M 23.253906 361.363281 C 22.957031 364.039062 21.996094 364.539062 20.554688 362.777344 C 14.765625 355.675781 7.867188 325.105469 12.070312 325.179688 C 13.316406 325.203125 15.078125 327.820312 17.304688 332.957031 C 22.21875 345.316406 23.742188 357.007812 23.253906 361.363281 " fill-opacity="1" fill-rule="nonzero"/><path fill="#ffffff" d="M 52.058594 408.109375 C 49.253906 413.480469 38.09375 399.691406 33.964844 385.757812 C 31.671875 378.003906 32.835938 373.675781 36.738281 375.457031 C 39.976562 376.941406 43.203125 381.59375 44.578125 383.585938 C 52.183594 395.519531 53.539062 405.273438 52.058594 408.109375 " fill-opacity="1" fill-rule="nonzero"/><path fill="#ffffff" d="M 89.78125 451.109375 C 83.039062 455.324219 63.03125 433.828125 65.175781 424.675781 C 66.023438 421.050781 72 420.550781 82.132812 430.992188 C 91.875 441.886719 92.457031 449.4375 89.78125 451.109375 " fill-opacity="1" fill-rule="nonzero"/><path fill="#ffffff" d="M 21.136719 370.554688 L 16.699219 358.925781 C 17.523438 360.953125 18.382812 362.964844 19.21875 364.984375 C 26.96875 383.785156 26.96875 383.785156 28.476562 386.925781 C 26.242188 382.027344 23.128906 375.554688 21.136719 370.554688 " fill-opacity="1" fill-rule="nonzero"/><path fill="#ffffff" d="M 51.953125 425.433594 C 52 425.570312 52.046875 425.753906 52.058594 425.894531 C 51.859375 425.859375 51.859375 425.859375 51.460938 425.316406 L 48.234375 420.730469 C 45.027344 415.816406 40.773438 409.25 37.75 404.226562 C 36.019531 401.191406 35.457031 399.902344 35.675781 399.472656 C 36.394531 399.484375 38.417969 401.953125 41.679688 406.816406 C 48.445312 417.179688 51.648438 424.515625 51.953125 425.433594 " fill-opacity="1" fill-rule="nonzero"/><g clip-path="url(#569821087e)"><path fill="#ffffff" d="M 81.910156 459.707031 C 80.980469 459.839844 77.511719 456.273438 75.851562 454.558594 L 67.875 445.894531 C 63.222656 440.574219 61.402344 437.792969 62.464844 437.628906 C 62.484375 437.625 64.523438 437.425781 72.695312 446.066406 C 80.621094 454.75 82.90625 459.5625 81.910156 459.707031 " fill-opacity="1" fill-rule="nonzero"/></g></svg>