<svg xmlns="http://www.w3.org/2000/svg" xmlns:xlink="http://www.w3.org/1999/xlink" width="1793" zoomAndPan="magnify" viewBox="0 0 1344.75 460.499986" height="614" preserveAspectRatio="xMidYMid meet" version="1.0"><defs><g/><clipPath id="103588da9e"><path d="M 594 82.203125 L 695 82.203125 L 695 183 L 594 183 Z M 594 82.203125 " clip-rule="nonzero"/></clipPath><clipPath id="e4b64b15e8"><path d="M 606 278 L 707 278 L 707 378.96875 L 606 378.96875 Z M 606 278 " clip-rule="nonzero"/></clipPath></defs><g fill="#ffffff" fill-opacity="1"><g transform="translate(51.049864, 376.375774)"><g><path d="M 41.53125 0 L 41.53125 -274.734375 L 145.625 -274.734375 C 162.539062 -274.734375 176.882812 -272.035156 188.65625 -266.640625 C 200.4375 -261.253906 209.300781 -253.582031 215.25 -243.625 C 221.195312 -233.664062 224.171875 -221.796875 224.171875 -208.015625 C 224.171875 -196.117188 220.945312 -185.347656 214.5 -175.703125 C 208.050781 -166.054688 198.8125 -158.535156 186.78125 -153.140625 L 186.78125 -149.203125 C 205.070312 -144.691406 218.945312 -136.484375 228.40625 -124.578125 C 237.863281 -112.679688 242.59375 -97.710938 242.59375 -79.671875 C 242.59375 -54.117188 235.109375 -34.453125 220.140625 -20.671875 C 205.171875 -6.890625 182.96875 0 153.53125 0 Z M 144.125 -159.34375 C 159.28125 -159.34375 171.054688 -163.320312 179.453125 -171.28125 C 187.847656 -179.238281 192.046875 -190.171875 192.046875 -204.078125 C 192.046875 -218.734375 188.003906 -229.722656 179.921875 -237.046875 C 171.847656 -244.378906 159.914062 -248.046875 144.125 -248.046875 L 73.84375 -248.046875 L 73.84375 -159.34375 Z M 151.078125 -26.6875 C 190.160156 -26.6875 209.703125 -44.347656 209.703125 -79.671875 C 209.703125 -115.003906 190.160156 -132.671875 151.078125 -132.671875 L 73.84375 -132.671875 L 73.84375 -26.6875 Z M 151.078125 -26.6875 "/></g></g></g><g fill="#ffffff" fill-opacity="1"><g transform="translate(315.412758, 376.375774)"><g><path d="M 73.84375 0 L 41.53125 0 L 41.53125 -274.734375 L 73.84375 -274.734375 Z M 73.84375 0 "/></g></g></g><g fill="#ffffff" fill-opacity="1"><g transform="translate(430.941215, 376.375774)"><g/></g></g><g fill="#ffffff" fill-opacity="1"><g transform="translate(525.262577, 376.375774)"><g/></g></g><g fill="#ffffff" fill-opacity="1"><g transform="translate(619.583939, 376.375774)"><g/></g></g><g fill="#ffffff" fill-opacity="1"><g transform="translate(713.865145, 376.375774)"><g><path d="M 71.40625 0 L 41.53125 0 L 41.53125 -274.734375 L 89.453125 -274.734375 L 172.6875 -42.09375 L 176.640625 -42.09375 L 259.875 -274.734375 L 306.109375 -274.734375 L 306.109375 0 L 275.484375 0 L 275.484375 -224.171875 L 270.78125 -224.9375 L 189.609375 0 L 157.46875 0 L 76.109375 -224.9375 L 71.40625 -224.171875 Z M 71.40625 0 "/></g></g></g><g fill="#ffffff" fill-opacity="1"><g transform="translate(1061.651714, 376.375774)"><g><path d="M 73.84375 -129.46875 L 73.84375 -26.6875 L 213.84375 -26.6875 L 213.84375 0 L 41.53125 0 L 41.53125 -274.734375 L 210.84375 -274.734375 L 210.84375 -248.046875 L 73.84375 -248.046875 L 73.84375 -156.15625 L 194.671875 -156.15625 L 194.671875 -129.46875 Z M 73.84375 -129.46875 "/></g></g></g><path fill="#ffffff" d="M 497 292.414062 C 487.804688 295.503906 477.996094 296.742188 469.414062 295.503906 C 497 341.257812 549.113281 365.367188 601.226562 356.09375 C 597.546875 348.675781 595.09375 340.636719 595.09375 331.980469 C 554.632812 338.164062 518.460938 321.472656 497 292.414062 Z M 497 292.414062 " fill-opacity="1" fill-rule="nonzero"/><path fill="#ffffff" d="M 492.710938 173.707031 C 513.554688 141.558594 549.726562 124.246094 582.21875 126.71875 C 582.832031 118.0625 585.898438 109.40625 590.191406 101.988281 C 536.851562 97.660156 488.417969 126.71875 465.121094 172.46875 C 474.316406 170.617188 483.515625 171.234375 492.710938 173.707031 Z M 492.710938 173.707031 " fill-opacity="1" fill-rule="nonzero"/><path fill="#ffffff" d="M 696.253906 280.046875 C 710.964844 246.042969 709.738281 205.855469 692.574219 171.234375 C 687.054688 178.035156 680.3125 183.597656 672.957031 187.308594 C 684.605469 212.65625 684.605469 242.332031 674.179688 268.300781 C 682.152344 270.773438 689.507812 275.101562 696.253906 280.046875 Z M 696.253906 280.046875 " fill-opacity="1" fill-rule="nonzero"/><g clip-path="url(#103588da9e)"><path fill="#ffffff" d="M 644.140625 182.363281 C 672.34375 182.363281 694.414062 159.488281 694.414062 132.28125 C 694.414062 104.460938 671.730469 82.203125 644.140625 82.203125 C 617.777344 82.203125 596.933594 102.605469 594.480469 127.335938 C 590.804688 155.777344 614.101562 182.363281 644.140625 182.363281 Z M 647.207031 96.421875 C 655.789062 96.421875 662.53125 103.222656 662.53125 111.878906 C 662.53125 120.535156 655.175781 127.335938 647.207031 127.335938 C 638.621094 127.335938 631.878906 120.535156 631.878906 111.878906 C 631.878906 103.222656 638.621094 96.421875 647.207031 96.421875 Z M 626.363281 137.847656 C 639.234375 125.480469 674.792969 128.574219 674.792969 155.160156 L 674.792969 161.339844 L 619.003906 161.339844 C 619.617188 158.867188 616.550781 147.738281 626.363281 137.847656 Z M 626.363281 137.847656 " fill-opacity="1" fill-rule="nonzero"/></g><g clip-path="url(#e4b64b15e8)"><path fill="#ffffff" d="M 656.402344 278.8125 C 628.8125 278.8125 606.128906 301.070312 606.128906 328.890625 L 606.128906 329.507812 C 606.742188 357.332031 629.425781 378.96875 656.402344 378.96875 C 683.992188 378.96875 706.675781 356.710938 706.675781 328.890625 C 706.675781 301.070312 684.605469 278.8125 656.402344 278.8125 Z M 660.082031 293.648438 C 666.824219 294.886719 672.34375 301.070312 672.34375 308.488281 C 672.34375 317.144531 665.597656 323.945312 657.015625 323.945312 C 648.433594 323.945312 641.6875 317.144531 641.6875 308.488281 C 641.6875 299.832031 649.046875 291.796875 660.082031 293.648438 Z M 684.605469 358.566406 L 628.8125 358.566406 C 628.8125 353.621094 628.8125 351.148438 629.425781 348.058594 C 631.265625 336.929688 641.074219 328.273438 652.722656 328.273438 L 661.308594 328.273438 C 674.179688 328.273438 685.21875 338.78125 685.21875 352.386719 L 685.21875 358.566406 Z M 684.605469 358.566406 " fill-opacity="1" fill-rule="nonzero"/></g><path fill="#ffffff" d="M 525.816406 233.679688 C 525.816406 205.855469 503.132812 183.597656 475.542969 183.597656 C 447.957031 183.597656 425.273438 205.855469 425.273438 233.679688 C 425.273438 261.5 447.34375 283.757812 475.542969 283.757812 C 503.746094 283.757812 525.816406 261.5 525.816406 233.679688 Z M 476.15625 197.199219 C 484.738281 197.199219 491.484375 204 491.484375 212.65625 C 491.484375 221.3125 484.738281 228.113281 476.15625 228.113281 C 467.574219 228.113281 460.832031 221.3125 460.832031 212.65625 C 460.832031 204 467.574219 197.199219 476.15625 197.199219 Z M 447.957031 262.117188 L 447.957031 255.9375 C 447.957031 242.953125 458.378906 231.824219 471.867188 231.824219 L 480.449219 231.824219 C 493.324219 231.824219 504.359375 242.332031 504.359375 255.9375 L 504.359375 262.117188 Z M 447.957031 262.117188 " fill-opacity="1" fill-rule="nonzero"/><path fill="#ffffff" d="M 625.136719 254.699219 L 617.777344 247.28125 C 619.003906 245.425781 619.617188 243.570312 620.230469 241.714844 L 630.039062 241.714844 L 630.039062 218.222656 L 620.230469 218.222656 C 619.617188 216.367188 619.003906 214.511719 617.777344 212.65625 L 625.136719 205.238281 L 609.195312 189.164062 L 601.839844 196.582031 C 600 195.964844 598.160156 194.726562 596.320312 194.109375 L 596.320312 184.21875 L 573.023438 184.21875 L 573.023438 194.109375 C 571.183594 194.726562 569.34375 195.347656 567.503906 196.582031 L 560.148438 189.164062 L 543.597656 205.855469 L 550.953125 213.277344 C 550.339844 215.128906 549.113281 216.984375 548.5 218.839844 L 538.691406 218.839844 L 538.691406 242.332031 L 548.5 242.332031 C 549.113281 244.1875 549.726562 246.042969 550.953125 247.898438 L 543.597656 255.316406 L 560.148438 272.011719 L 567.503906 264.589844 C 569.34375 265.210938 571.183594 266.445312 573.023438 267.066406 L 573.023438 276.957031 L 596.320312 276.957031 L 596.320312 267.066406 C 598.160156 266.445312 600 265.828125 601.839844 264.589844 L 609.195312 272.011719 Z M 584.671875 252.226562 C 572.410156 252.226562 562.601562 242.332031 562.601562 229.96875 C 562.601562 217.601562 572.410156 207.710938 584.671875 207.710938 C 596.933594 207.710938 606.742188 217.601562 606.742188 229.96875 C 606.742188 242.332031 596.933594 252.226562 584.671875 252.226562 Z M 584.671875 252.226562 " fill-opacity="1" fill-rule="nonzero"/></svg>