<svg xmlns="http://www.w3.org/2000/svg" xmlns:xlink="http://www.w3.org/1999/xlink" width="800" zoomAndPan="magnify" viewBox="0 0 600 599.999999" height="800" preserveAspectRatio="xMidYMid meet" version="1.0"><defs><clipPath id="5697318ba0"><path d="M 351 6.542969 L 552 6.542969 L 552 205 L 351 205 Z M 351 6.542969 " clip-rule="nonzero"/></clipPath><clipPath id="96d2ab494f"><path d="M 375 395 L 577 395 L 577 593.792969 L 375 593.792969 Z M 375 395 " clip-rule="nonzero"/></clipPath></defs><path fill="#ffffff" d="M 158.175781 422.511719 C 139.832031 428.628906 120.265625 431.078125 103.148438 428.628906 C 158.175781 519.164062 262.121094 566.878906 366.066406 548.527344 C 358.730469 533.847656 353.835938 517.941406 353.835938 500.8125 C 273.128906 513.046875 200.976562 480.015625 158.175781 422.511719 Z M 158.175781 422.511719 " fill-opacity="1" fill-rule="nonzero"/><path fill="#ffffff" d="M 149.617188 187.613281 C 191.195312 123.996094 263.34375 89.738281 328.15625 94.632812 C 329.378906 77.503906 335.496094 60.375 344.054688 45.695312 C 237.664062 37.128906 141.054688 94.632812 94.585938 185.167969 C 112.929688 181.496094 131.273438 182.71875 149.617188 187.613281 Z M 149.617188 187.613281 " fill-opacity="1" fill-rule="nonzero"/><path fill="#ffffff" d="M 555.613281 398.042969 C 584.960938 330.753906 582.515625 251.230469 548.273438 182.71875 C 537.269531 196.175781 523.816406 207.1875 509.144531 214.527344 C 532.378906 264.691406 532.378906 323.414062 511.589844 374.800781 C 527.484375 379.691406 542.160156 388.257812 555.613281 398.042969 Z M 555.613281 398.042969 " fill-opacity="1" fill-rule="nonzero"/><g clip-path="url(#5697318ba0)"><path fill="#ffffff" d="M 451.667969 204.742188 C 507.921875 204.742188 551.945312 159.472656 551.945312 105.644531 C 551.945312 50.589844 506.699219 6.542969 451.667969 6.542969 C 399.085938 6.542969 357.507812 46.917969 352.613281 95.855469 C 345.277344 152.132812 391.746094 204.742188 451.667969 204.742188 Z M 457.78125 34.683594 C 474.902344 34.683594 488.355469 48.140625 488.355469 65.269531 C 488.355469 82.398438 473.679688 95.855469 457.78125 95.855469 C 440.660156 95.855469 427.210938 82.398438 427.210938 65.269531 C 427.210938 48.140625 440.660156 34.683594 457.78125 34.683594 Z M 416.203125 116.652344 C 441.882812 92.183594 512.8125 98.300781 512.8125 150.910156 L 512.8125 163.144531 L 401.53125 163.144531 C 402.753906 158.25 396.636719 136.230469 416.203125 116.652344 Z M 416.203125 116.652344 " fill-opacity="1" fill-rule="nonzero"/></g><g clip-path="url(#96d2ab494f)"><path fill="#ffffff" d="M 476.125 395.597656 C 421.097656 395.597656 375.847656 439.640625 375.847656 494.695312 L 375.847656 495.917969 C 377.070312 550.972656 422.320312 593.792969 476.125 593.792969 C 531.15625 593.792969 576.402344 549.75 576.402344 494.695312 C 576.402344 439.640625 532.378906 395.597656 476.125 395.597656 Z M 483.460938 424.960938 C 496.914062 427.40625 507.921875 439.640625 507.921875 454.324219 C 507.921875 471.449219 494.46875 484.910156 477.347656 484.910156 C 460.226562 484.910156 446.777344 471.449219 446.777344 454.324219 C 446.777344 437.195312 461.449219 421.289062 483.460938 424.960938 Z M 532.378906 553.421875 L 421.097656 553.421875 C 421.097656 543.632812 421.097656 538.738281 422.320312 532.621094 C 425.988281 510.601562 445.554688 493.472656 468.789062 493.472656 L 485.910156 493.472656 C 511.589844 493.472656 533.601562 514.269531 533.601562 541.1875 L 533.601562 553.421875 Z M 532.378906 553.421875 " fill-opacity="1" fill-rule="nonzero"/></g><path fill="#ffffff" d="M 215.652344 306.285156 C 215.652344 251.230469 170.40625 207.1875 115.375 207.1875 C 60.347656 207.1875 15.101562 251.230469 15.101562 306.285156 C 15.101562 361.339844 59.125 405.386719 115.375 405.386719 C 171.628906 405.386719 215.652344 361.339844 215.652344 306.285156 Z M 116.597656 234.105469 C 133.71875 234.105469 147.171875 247.5625 147.171875 264.691406 C 147.171875 281.816406 133.71875 295.277344 116.597656 295.277344 C 99.480469 295.277344 86.027344 281.816406 86.027344 264.691406 C 86.027344 247.5625 99.480469 234.105469 116.597656 234.105469 Z M 60.347656 362.566406 L 60.347656 350.332031 C 60.347656 324.636719 81.136719 302.617188 108.039062 302.617188 L 125.160156 302.617188 C 150.839844 302.617188 172.851562 323.414062 172.851562 350.332031 L 172.851562 362.566406 Z M 60.347656 362.566406 " fill-opacity="1" fill-rule="nonzero"/><path fill="#ffffff" d="M 413.757812 347.882812 L 399.082031 333.203125 C 401.53125 329.53125 402.753906 325.863281 403.976562 322.191406 L 423.542969 322.191406 L 423.542969 275.699219 L 403.976562 275.699219 C 402.753906 272.03125 401.53125 268.359375 399.082031 264.691406 L 413.757812 250.007812 L 381.964844 218.199219 L 367.289062 232.878906 C 363.621094 231.65625 359.953125 229.210938 356.28125 227.988281 L 356.28125 208.410156 L 309.8125 208.410156 L 309.8125 227.988281 C 306.144531 229.210938 302.476562 230.433594 298.808594 232.878906 L 284.132812 218.199219 L 251.117188 251.230469 L 265.789062 265.914062 C 264.566406 269.582031 262.121094 273.253906 260.898438 276.925781 L 241.332031 276.925781 L 241.332031 323.414062 L 260.898438 323.414062 C 262.121094 327.085938 263.34375 330.753906 265.789062 334.425781 L 251.117188 349.105469 L 284.132812 382.140625 L 298.808594 367.457031 C 302.476562 368.683594 306.144531 371.128906 309.8125 372.351562 L 309.8125 391.925781 L 356.28125 391.925781 L 356.28125 372.351562 C 359.953125 371.128906 363.621094 369.90625 367.289062 367.457031 L 381.964844 382.140625 Z M 333.046875 342.988281 C 308.589844 342.988281 289.023438 323.414062 289.023438 298.945312 C 289.023438 274.476562 308.589844 254.902344 333.046875 254.902344 C 357.507812 254.902344 377.070312 274.476562 377.070312 298.945312 C 377.070312 323.414062 357.507812 342.988281 333.046875 342.988281 Z M 333.046875 342.988281 " fill-opacity="1" fill-rule="nonzero"/></svg>